<svg xmlns="http://www.w3.org/2000/svg" version="1.1" viewBox="0 0 1815 687" width="1815" height="687"><defs></defs><g><g class="cluster" data-qualified-name="Backend" id="ent0001" data-source-line="26"><rect x="7" y="329.40" width="856" height="349.40" rx="2.50" ry="2.50" fill="#F8FAFC" stroke="#CBD5E1" stroke-width="1.50"></rect><text x="409.99" y="342.00" font-size="12" fill="#0F172A" xml:space="preserve" style="white-space: pre" font-weight="bold" font-family="sans-serif">Backend</text></g><g class="cluster" data-qualified-name="Frontend. Interfaces" id="ent0014" data-source-line="85"><rect x="887" y="336.20" width="772" height="162" rx="2.50" ry="2.50" fill="#F8FAFC" stroke="#CBD5E1" stroke-width="1.50"></rect><text x="1214.99" y="348.80" font-size="12" fill="#0F172A" xml:space="preserve" style="white-space: pre" font-weight="bold" font-family="sans-serif">Frontend: Interfaces</text></g><g class="cluster" data-qualified-name="Frontend. Servicios" id="ent0020" data-source-line="123"><rect x="910" y="134" width="818" height="148.40" rx="2.50" ry="2.50" fill="#F8FAFC" stroke="#CBD5E1" stroke-width="1.50"></rect><text x="1262.66" y="146.60" font-size="12" fill="#0F172A" xml:space="preserve" style="white-space: pre" font-weight="bold" font-family="sans-serif">Frontend: Servicios</text></g><g class="cluster" data-qualified-name="Frontend. Componentes" id="ent0025" data-source-line="151"><rect x="579" y="7" width="1010" height="94" rx="2.50" ry="2.50" fill="#F8FAFC" stroke="#CBD5E1" stroke-width="1.50"></rect><text x="1014.34" y="19.60" font-size="12" fill="#0F172A" xml:space="preserve" style="white-space: pre" font-weight="bold" font-family="sans-serif">Frontend: Componentes</text></g><g class="entity" data-qualified-name="Backend.Usuario" id="ent0002" data-source-line="28"><rect x="685.02" y="361.40" width="161.96" height="127.60" rx="2.50" ry="2.50" fill="#FFFFFF" stroke="#94A3B8" stroke-width="0.50"></rect><circle cx="741.33" cy="376.40" r="10" fill="#ADD1B2" stroke="#181818" stroke-width="1"></circle><text x="741.33" y="376.40" font-family="monospace" font-size="12" fill="#000000" text-anchor="middle" dominant-baseline="central">C</text><text x="760.33" y="380.20" font-size="12" fill="#334155" xml:space="preserve" style="white-space: pre" font-family="sans-serif">Usuario</text><line x1="686.02" y1="391.40" x2="845.98" y2="391.40" stroke="#94A3B8" stroke-width="0.50"></line><text x="691.02" y="406.00" font-size="12" fill="#334155" xml:space="preserve" style="white-space: pre" font-family="sans-serif">+id : String</text><text x="691.02" y="419.60" font-size="12" fill="#334155" xml:space="preserve" style="white-space: pre" font-family="sans-serif">+nombre_usuario : String</text><text x="691.02" y="433.20" font-size="12" fill="#334155" xml:space="preserve" style="white-space: pre" font-family="sans-serif">+estado : String</text><text x="691.02" y="446.80" font-size="12" fill="#334155" xml:space="preserve" style="white-space: pre" font-family="sans-serif">+rol : String</text><text x="691.02" y="460.40" font-size="12" fill="#334155" xml:space="preserve" style="white-space: pre" font-family="sans-serif">+foto_perfil : String?</text><text x="691.02" y="474.00" font-size="12" fill="#334155" xml:space="preserve" style="white-space: pre" font-family="sans-serif">+fecha_creacion : DateTime</text><line x1="686.02" y1="481.00" x2="845.98" y2="481.00" stroke="#94A3B8" stroke-width="0.50"></line></g><g class="entity" data-qualified-name="Backend.Opiniones" id="ent0003" data-source-line="37"><rect x="505.02" y="535.20" width="161.96" height="127.60" rx="2.50" ry="2.50" fill="#FFFFFF" stroke="#94A3B8" stroke-width="0.50"></rect><circle cx="554.98" cy="550.20" r="10" fill="#ADD1B2" stroke="#181818" stroke-width="1"></circle><text x="554.98" y="550.20" font-family="monospace" font-size="12" fill="#000000" text-anchor="middle" dominant-baseline="central">C</text><text x="573.98" y="554.00" font-size="12" fill="#334155" xml:space="preserve" style="white-space: pre" font-family="sans-serif">Opiniones</text><line x1="506.02" y1="565.20" x2="665.98" y2="565.20" stroke="#94A3B8" stroke-width="0.50"></line><text x="511.02" y="579.80" font-size="12" fill="#334155" xml:space="preserve" style="white-space: pre" font-family="sans-serif">+id_opinion : Int</text><text x="511.02" y="593.40" font-size="12" fill="#334155" xml:space="preserve" style="white-space: pre" font-family="sans-serif">+id_usuario : String</text><text x="511.02" y="607.00" font-size="12" fill="#334155" xml:space="preserve" style="white-space: pre" font-family="sans-serif">+id_libro : String</text><text x="511.02" y="620.60" font-size="12" fill="#334155" xml:space="preserve" style="white-space: pre" font-family="sans-serif">+puntuacion : Int</text><text x="511.02" y="634.20" font-size="12" fill="#334155" xml:space="preserve" style="white-space: pre" font-family="sans-serif">+valoracion : String?</text><text x="511.02" y="647.80" font-size="12" fill="#334155" xml:space="preserve" style="white-space: pre" font-family="sans-serif">+fecha_creacion : DateTime</text><line x1="506.02" y1="654.80" x2="665.98" y2="654.80" stroke="#94A3B8" stroke-width="0.50"></line></g><g class="entity" data-qualified-name="Backend.LecturasUsuarios" id="ent0004" data-source-line="46"><rect x="696.69" y="535.20" width="150.63" height="127.60" rx="2.50" ry="2.50" fill="#FFFFFF" stroke="#94A3B8" stroke-width="0.50"></rect><circle cx="722.95" cy="550.20" r="10" fill="#ADD1B2" stroke="#181818" stroke-width="1"></circle><text x="722.95" y="550.20" font-family="monospace" font-size="12" fill="#000000" text-anchor="middle" dominant-baseline="central">C</text><text x="738.68" y="554.00" font-size="12" fill="#334155" xml:space="preserve" style="white-space: pre" font-family="sans-serif">LecturasUsuarios</text><line x1="697.69" y1="565.20" x2="846.32" y2="565.20" stroke="#94A3B8" stroke-width="0.50"></line><text x="702.69" y="579.80" font-size="12" fill="#334155" xml:space="preserve" style="white-space: pre" font-family="sans-serif">+id_lectura : String</text><text x="702.69" y="593.40" font-size="12" fill="#334155" xml:space="preserve" style="white-space: pre" font-family="sans-serif">+id_usuario : String</text><text x="702.69" y="607.00" font-size="12" fill="#334155" xml:space="preserve" style="white-space: pre" font-family="sans-serif">+id_libro : String</text><text x="702.69" y="620.60" font-size="12" fill="#334155" xml:space="preserve" style="white-space: pre" font-family="sans-serif">+fecha_inicio : DateTime?</text><text x="702.69" y="634.20" font-size="12" fill="#334155" xml:space="preserve" style="white-space: pre" font-family="sans-serif">+fecha_fin : DateTime?</text><text x="702.69" y="647.80" font-size="12" fill="#334155" xml:space="preserve" style="white-space: pre" font-family="sans-serif">+estado : String</text><line x1="697.69" y1="654.80" x2="846.32" y2="654.80" stroke="#94A3B8" stroke-width="0.50"></line></g><g class="entity" data-qualified-name="Backend.PrismaService" id="ent0005" data-source-line="55"><rect x="294.33" y="576" width="107.35" height="46" rx="2.50" ry="2.50" fill="#FFFFFF" stroke="#94A3B8" stroke-width="0.50"></rect><circle cx="308.33" cy="591" r="10" fill="#ADD1B2" stroke="#181818" stroke-width="1"></circle><text x="308.33" y="591" font-family="monospace" font-size="12" fill="#000000" text-anchor="middle" dominant-baseline="central">C</text><text x="321.33" y="594.80" font-size="12" fill="#334155" xml:space="preserve" style="white-space: pre" font-family="sans-serif">PrismaService</text><line x1="295.33" y1="606" x2="400.68" y2="606" stroke="#94A3B8" stroke-width="0.50"></line><line x1="295.33" y1="614" x2="400.68" y2="614" stroke="#94A3B8" stroke-width="0.50"></line></g><g class="entity" data-qualified-name="Backend.UsuariosService" id="ent0006" data-source-line="57"><rect x="490.79" y="388.60" width="164.41" height="73.20" rx="2.50" ry="2.50" fill="#FFFFFF" stroke="#94A3B8" stroke-width="0.50"></rect><circle cx="525.96" cy="403.60" r="10" fill="#ADD1B2" stroke="#181818" stroke-width="1"></circle><text x="525.96" y="403.60" font-family="monospace" font-size="12" fill="#000000" text-anchor="middle" dominant-baseline="central">C</text><text x="543.67" y="407.40" font-size="12" fill="#334155" xml:space="preserve" style="white-space: pre" font-family="sans-serif">UsuariosService</text><line x1="491.79" y1="418.60" x2="654.20" y2="418.60" stroke="#94A3B8" stroke-width="0.50"></line><line x1="491.79" y1="426.60" x2="654.20" y2="426.60" stroke="#94A3B8" stroke-width="0.50"></line><text x="496.79" y="441.20" font-size="12" fill="#334155" xml:space="preserve" style="white-space: pre" font-family="sans-serif">+findMe(id) : Usuario</text><text x="496.79" y="454.80" font-size="12" fill="#334155" xml:space="preserve" style="white-space: pre" font-family="sans-serif">+updateMe(id, dto) : Usuario</text></g><g class="entity" data-qualified-name="Backend.OpinionesService" id="ent0007" data-source-line="62"><rect x="23.13" y="368.20" width="181.75" height="114.00" rx="2.50" ry="2.50" fill="#FFFFFF" stroke="#94A3B8" stroke-width="0.50"></rect><circle cx="63.09" cy="383.20" r="10" fill="#ADD1B2" stroke="#181818" stroke-width="1"></circle><text x="63.09" y="383.20" font-family="monospace" font-size="12" fill="#000000" text-anchor="middle" dominant-baseline="central">C</text><text x="81.86" y="387.00" font-size="12" fill="#334155" xml:space="preserve" style="white-space: pre" font-family="sans-serif">OpinionesService</text><line x1="24.13" y1="398.20" x2="203.88" y2="398.20" stroke="#94A3B8" stroke-width="0.50"></line><line x1="24.13" y1="406.20" x2="203.88" y2="406.20" stroke="#94A3B8" stroke-width="0.50"></line><text x="29.13" y="420.80" font-size="12" fill="#334155" xml:space="preserve" style="white-space: pre" font-family="sans-serif">+create(dto) : Opiniones</text><text x="29.13" y="434.40" font-size="12" fill="#334155" xml:space="preserve" style="white-space: pre" font-family="sans-serif">+findByLibro(id) : Opiniones[]</text><text x="29.13" y="448.00" font-size="12" fill="#334155" xml:space="preserve" style="white-space: pre" font-family="sans-serif">+findByUsuario(id) : Opiniones[]</text><text x="29.13" y="461.60" font-size="12" fill="#334155" xml:space="preserve" style="white-space: pre" font-family="sans-serif">+update(id, dto) : Opiniones</text><text x="29.13" y="475.20" font-size="12" fill="#334155" xml:space="preserve" style="white-space: pre" font-family="sans-serif">+remove(id) : void</text></g><g class="entity" data-qualified-name="Backend.LecturasService" id="ent0008" data-source-line="70"><rect x="235.11" y="375.00" width="225.77" height="100.40" rx="2.50" ry="2.50" fill="#FFFFFF" stroke="#94A3B8" stroke-width="0.50"></rect><circle cx="300.98" cy="390.00" r="10" fill="#ADD1B2" stroke="#181818" stroke-width="1"></circle><text x="300.98" y="390.00" font-family="monospace" font-size="12" fill="#000000" text-anchor="middle" dominant-baseline="central">C</text><text x="319.98" y="393.80" font-size="12" fill="#334155" xml:space="preserve" style="white-space: pre" font-family="sans-serif">LecturasService</text><line x1="236.11" y1="405.00" x2="459.88" y2="405.00" stroke="#94A3B8" stroke-width="0.50"></line><line x1="236.11" y1="413.00" x2="459.88" y2="413.00" stroke="#94A3B8" stroke-width="0.50"></line><text x="241.11" y="427.60" font-size="12" fill="#334155" xml:space="preserve" style="white-space: pre" font-family="sans-serif">+create(id_user, dto) : LecturasUsuarios</text><text x="241.11" y="441.20" font-size="12" fill="#334155" xml:space="preserve" style="white-space: pre" font-family="sans-serif">+findByUsuario(id) : LecturasUsuarios[]</text><text x="241.11" y="454.80" font-size="12" fill="#334155" xml:space="preserve" style="white-space: pre" font-family="sans-serif">+update(id, dto) : LecturasUsuarios</text><text x="241.11" y="468.40" font-size="12" fill="#334155" xml:space="preserve" style="white-space: pre" font-family="sans-serif">+remove(id) : void</text></g><g class="entity" data-qualified-name="Frontend. Interfaces.IUsuario" id="ent0015" data-source-line="87"><rect x="903.13" y="375.00" width="141.74" height="100.40" rx="2.50" ry="2.50" fill="#FFFFFF" stroke="#94A3B8" stroke-width="0.50"></rect><circle cx="947.66" cy="390.00" r="10" fill="#B4A7E5" stroke="#181818" stroke-width="1"></circle><text x="947.66" y="390.00" font-family="monospace" font-size="12" fill="#000000" text-anchor="middle" dominant-baseline="central">I</text><text x="966.66" y="393.80" font-size="12" fill="#334155" xml:space="preserve" style="white-space: pre" font-style="italic" font-family="sans-serif">IUsuario</text><line x1="904.13" y1="405.00" x2="1043.87" y2="405.00" stroke="#94A3B8" stroke-width="0.50"></line><text x="909.13" y="419.60" font-size="12" fill="#334155" xml:space="preserve" style="white-space: pre" font-family="sans-serif">+id: string</text><text x="909.13" y="433.20" font-size="12" fill="#334155" xml:space="preserve" style="white-space: pre" font-family="sans-serif">+nombre_usuario: string</text><text x="909.13" y="446.80" font-size="12" fill="#334155" xml:space="preserve" style="white-space: pre" font-family="sans-serif">+rol: string</text><text x="909.13" y="460.40" font-size="12" fill="#334155" xml:space="preserve" style="white-space: pre" font-family="sans-serif">+foto_perfil?: string</text><line x1="904.13" y1="467.40" x2="1043.87" y2="467.40" stroke="#94A3B8" stroke-width="0.50"></line></g><g class="entity" data-qualified-name="Frontend. Interfaces.ILibro" id="ent0016" data-source-line="94"><rect x="1075.13" y="375.00" width="125.74" height="100.40" rx="2.50" ry="2.50" fill="#FFFFFF" stroke="#94A3B8" stroke-width="0.50"></rect><circle cx="1118.99" cy="390.00" r="10" fill="#B4A7E5" stroke="#181818" stroke-width="1"></circle><text x="1118.99" y="390.00" font-family="monospace" font-size="12" fill="#000000" text-anchor="middle" dominant-baseline="central">I</text><text x="1137.99" y="393.80" font-size="12" fill="#334155" xml:space="preserve" style="white-space: pre" font-style="italic" font-family="sans-serif">ILibro</text><line x1="1076.13" y1="405.00" x2="1199.87" y2="405.00" stroke="#94A3B8" stroke-width="0.50"></line><text x="1081.13" y="419.60" font-size="12" fill="#334155" xml:space="preserve" style="white-space: pre" font-family="sans-serif">+key: string</text><text x="1081.13" y="433.20" font-size="12" fill="#334155" xml:space="preserve" style="white-space: pre" font-family="sans-serif">+title: string</text><text x="1081.13" y="446.80" font-size="12" fill="#334155" xml:space="preserve" style="white-space: pre" font-family="sans-serif">+author_name: string</text><text x="1081.13" y="460.40" font-size="12" fill="#334155" xml:space="preserve" style="white-space: pre" font-family="sans-serif">+cover_i?: string</text><line x1="1076.13" y1="467.40" x2="1199.87" y2="467.40" stroke="#94A3B8" stroke-width="0.50"></line></g><g class="entity" data-qualified-name="Frontend. Interfaces.IDetalleLibro" id="ent0017" data-source-line="101"><rect x="1231.14" y="375.00" width="119.72" height="100.40" rx="2.50" ry="2.50" fill="#FFFFFF" stroke="#94A3B8" stroke-width="0.50"></rect><circle cx="1255.20" cy="390.00" r="10" fill="#B4A7E5" stroke="#181818" stroke-width="1"></circle><text x="1255.20" y="390.00" font-family="monospace" font-size="12" fill="#000000" text-anchor="middle" dominant-baseline="central">I</text><text x="1270.43" y="393.80" font-size="12" fill="#334155" xml:space="preserve" style="white-space: pre" font-style="italic" font-family="sans-serif">IDetalleLibro</text><line x1="1232.14" y1="405.00" x2="1349.86" y2="405.00" stroke="#94A3B8" stroke-width="0.50"></line><text x="1237.14" y="419.60" font-size="12" fill="#334155" xml:space="preserve" style="white-space: pre" font-family="sans-serif">+title: string</text><text x="1237.14" y="433.20" font-size="12" fill="#334155" xml:space="preserve" style="white-space: pre" font-family="sans-serif">+description?: string</text><text x="1237.14" y="446.80" font-size="12" fill="#334155" xml:space="preserve" style="white-space: pre" font-family="sans-serif">+subjects?: string[]</text><text x="1237.14" y="460.40" font-size="12" fill="#334155" xml:space="preserve" style="white-space: pre" font-family="sans-serif">+key: string</text><line x1="1232.14" y1="467.40" x2="1349.86" y2="467.40" stroke="#94A3B8" stroke-width="0.50"></line></g><g class="entity" data-qualified-name="Frontend. Interfaces.ILectura" id="ent0018" data-source-line="108"><rect x="1535.47" y="381.80" width="107.05" height="86.80" rx="2.50" ry="2.50" fill="#FFFFFF" stroke="#94A3B8" stroke-width="0.50"></rect><circle cx="1564.63" cy="396.80" r="10" fill="#B4A7E5" stroke="#181818" stroke-width="1"></circle><text x="1564.63" y="396.80" font-family="monospace" font-size="12" fill="#000000" text-anchor="middle" dominant-baseline="central">I</text><text x="1581.00" y="400.60" font-size="12" fill="#334155" xml:space="preserve" style="white-space: pre" font-style="italic" font-family="sans-serif">ILectura</text><line x1="1536.47" y1="411.80" x2="1641.52" y2="411.80" stroke="#94A3B8" stroke-width="0.50"></line><text x="1541.47" y="426.40" font-size="12" fill="#334155" xml:space="preserve" style="white-space: pre" font-family="sans-serif">+id_lectura: string</text><text x="1541.47" y="440.00" font-size="12" fill="#334155" xml:space="preserve" style="white-space: pre" font-family="sans-serif">+id_libro: string</text><text x="1541.47" y="453.60" font-size="12" fill="#334155" xml:space="preserve" style="white-space: pre" font-family="sans-serif">+estado: string</text><line x1="1536.47" y1="460.60" x2="1641.52" y2="460.60" stroke="#94A3B8" stroke-width="0.50"></line></g><g class="entity" data-qualified-name="Frontend. Interfaces.IOpinion" id="ent0019" data-source-line="114"><rect x="1380.46" y="368.20" width="125.08" height="114.00" rx="2.50" ry="2.50" fill="#FFFFFF" stroke="#94A3B8" stroke-width="0.50"></rect><circle cx="1417.13" cy="383.20" r="10" fill="#B4A7E5" stroke="#181818" stroke-width="1"></circle><text x="1417.13" y="383.20" font-family="monospace" font-size="12" fill="#000000" text-anchor="middle" dominant-baseline="central">I</text><text x="1435.17" y="387.00" font-size="12" fill="#334155" xml:space="preserve" style="white-space: pre" font-style="italic" font-family="sans-serif">IOpinion</text><line x1="1381.46" y1="398.20" x2="1504.54" y2="398.20" stroke="#94A3B8" stroke-width="0.50"></line><text x="1386.46" y="412.80" font-size="12" fill="#334155" xml:space="preserve" style="white-space: pre" font-family="sans-serif">+id_opinion: number</text><text x="1386.46" y="426.40" font-size="12" fill="#334155" xml:space="preserve" style="white-space: pre" font-family="sans-serif">+id_usuario: string</text><text x="1386.46" y="440.00" font-size="12" fill="#334155" xml:space="preserve" style="white-space: pre" font-family="sans-serif">+id_libro: string</text><text x="1386.46" y="453.60" font-size="12" fill="#334155" xml:space="preserve" style="white-space: pre" font-family="sans-serif">+puntuacion: number</text><text x="1386.46" y="467.20" font-size="12" fill="#334155" xml:space="preserve" style="white-space: pre" font-family="sans-serif">+valoracion: string</text><line x1="1381.46" y1="474.20" x2="1504.54" y2="474.20" stroke="#94A3B8" stroke-width="0.50"></line></g><g class="entity" data-qualified-name="Frontend. Servicios.servicioUsuarios" id="ent0021" data-source-line="125"><rect x="925.79" y="172.80" width="172.41" height="86.80" rx="2.50" ry="2.50" fill="#FFFFFF" stroke="#94A3B8" stroke-width="0.50"></rect><circle cx="964.26" cy="187.80" r="10" fill="#ADD1B2" stroke="#181818" stroke-width="1"></circle><text x="964.26" y="187.80" font-family="monospace" font-size="12" fill="#000000" text-anchor="middle" dominant-baseline="central">C</text><text x="982.70" y="191.60" font-size="12" fill="#334155" xml:space="preserve" style="white-space: pre" font-family="sans-serif">servicioUsuarios</text><line x1="926.79" y1="202.80" x2="1097.20" y2="202.80" stroke="#94A3B8" stroke-width="0.50"></line><line x1="926.79" y1="210.80" x2="1097.20" y2="210.80" stroke="#94A3B8" stroke-width="0.50"></line><text x="931.79" y="225.40" font-size="12" fill="#334155" xml:space="preserve" style="white-space: pre" font-family="sans-serif">+login(email, pass)</text><text x="931.79" y="239.00" font-size="12" fill="#334155" xml:space="preserve" style="white-space: pre" font-family="sans-serif">+getPorId(id) : IUsuario</text><text x="931.79" y="252.60" font-size="12" fill="#334155" xml:space="preserve" style="white-space: pre" font-family="sans-serif">+putPorId(id, datos) : IUsuario</text></g><g class="entity" data-qualified-name="Frontend. Servicios.servicioLibros" id="ent0022" data-source-line="131"><rect x="1128.46" y="179.60" width="175.09" height="73.20" rx="2.50" ry="2.50" fill="#FFFFFF" stroke="#94A3B8" stroke-width="0.50"></rect><circle cx="1175.33" cy="194.60" r="10" fill="#ADD1B2" stroke="#181818" stroke-width="1"></circle><text x="1175.33" y="194.60" font-family="monospace" font-size="12" fill="#000000" text-anchor="middle" dominant-baseline="central">C</text><text x="1194.33" y="198.40" font-size="12" fill="#334155" xml:space="preserve" style="white-space: pre" font-family="sans-serif">servicioLibros</text><line x1="1129.46" y1="209.60" x2="1302.55" y2="209.60" stroke="#94A3B8" stroke-width="0.50"></line><line x1="1129.46" y1="217.60" x2="1302.55" y2="217.60" stroke="#94A3B8" stroke-width="0.50"></line><text x="1134.46" y="232.20" font-size="12" fill="#334155" xml:space="preserve" style="white-space: pre" font-family="sans-serif">+getLibros(title, page) : ILibro[]</text><text x="1134.46" y="245.80" font-size="12" fill="#334155" xml:space="preserve" style="white-space: pre" font-family="sans-serif">+getData(key) : IDetalleLibro</text></g><g class="entity" data-qualified-name="Frontend. Servicios.servicioOpiniones" id="ent0023" data-source-line="136"><rect x="1333.45" y="166" width="175.10" height="100.40" rx="2.50" ry="2.50" fill="#FFFFFF" stroke="#94A3B8" stroke-width="0.50"></rect><circle cx="1370.12" cy="181" r="10" fill="#ADD1B2" stroke="#181818" stroke-width="1"></circle><text x="1370.12" y="181" font-family="monospace" font-size="12" fill="#000000" text-anchor="middle" dominant-baseline="central">C</text><text x="1388.16" y="184.80" font-size="12" fill="#334155" xml:space="preserve" style="white-space: pre" font-family="sans-serif">servicioOpiniones</text><line x1="1334.45" y1="196" x2="1507.55" y2="196" stroke="#94A3B8" stroke-width="0.50"></line><line x1="1334.45" y1="204" x2="1507.55" y2="204" stroke="#94A3B8" stroke-width="0.50"></line><text x="1339.45" y="218.60" font-size="12" fill="#334155" xml:space="preserve" style="white-space: pre" font-family="sans-serif">+postOpinion(datos) : IOpinion</text><text x="1339.45" y="232.20" font-size="12" fill="#334155" xml:space="preserve" style="white-space: pre" font-family="sans-serif">+getPorLibro(id) : IOpinion[]</text><text x="1339.45" y="245.80" font-size="12" fill="#334155" xml:space="preserve" style="white-space: pre" font-family="sans-serif">+putOpinion(id, datos)</text><text x="1339.45" y="259.40" font-size="12" fill="#334155" xml:space="preserve" style="white-space: pre" font-family="sans-serif">+deleteOpinion(id)</text></g><g class="entity" data-qualified-name="Frontend. Servicios.servicioLecturas" id="ent0024" data-source-line="143"><rect x="1538.46" y="166" width="173.07" height="100.40" rx="2.50" ry="2.50" fill="#FFFFFF" stroke="#94A3B8" stroke-width="0.50"></rect><circle cx="1577.83" cy="181" r="10" fill="#ADD1B2" stroke="#181818" stroke-width="1"></circle><text x="1577.83" y="181" font-family="monospace" font-size="12" fill="#000000" text-anchor="middle" dominant-baseline="central">C</text><text x="1596.47" y="184.80" font-size="12" fill="#334155" xml:space="preserve" style="white-space: pre" font-family="sans-serif">servicioLecturas</text><line x1="1539.46" y1="196" x2="1710.53" y2="196" stroke="#94A3B8" stroke-width="0.50"></line><line x1="1539.46" y1="204" x2="1710.53" y2="204" stroke="#94A3B8" stroke-width="0.50"></line><text x="1544.46" y="218.60" font-size="12" fill="#334155" xml:space="preserve" style="white-space: pre" font-family="sans-serif">+postLectura(datos) : ILectura</text><text x="1544.46" y="232.20" font-size="12" fill="#334155" xml:space="preserve" style="white-space: pre" font-family="sans-serif">+getPorUsuario(id) : ILectura[]</text><text x="1544.46" y="245.80" font-size="12" fill="#334155" xml:space="preserve" style="white-space: pre" font-family="sans-serif">+putLectura(id, datos)</text><text x="1544.46" y="259.40" font-size="12" fill="#334155" xml:space="preserve" style="white-space: pre" font-family="sans-serif">+deleteLectura(id)</text></g><g class="entity" data-qualified-name="Frontend. Componentes.RutaProtegida" id="ent0026" data-source-line="152"><rect x="594.64" y="39" width="106.72" height="46" rx="2.50" ry="2.50" fill="#FFFFFF" stroke="#94A3B8" stroke-width="0.50"></rect><circle cx="608.64" cy="54" r="10" fill="#ADD1B2" stroke="#181818" stroke-width="1"></circle><text x="608.64" y="54" font-family="monospace" font-size="12" fill="#000000" text-anchor="middle" dominant-baseline="central">C</text><text x="621.64" y="57.80" font-size="12" fill="#334155" xml:space="preserve" style="white-space: pre" font-family="sans-serif">RutaProtegida</text><line x1="595.64" y1="69" x2="700.36" y2="69" stroke="#94A3B8" stroke-width="0.50"></line><line x1="595.64" y1="77" x2="700.36" y2="77" stroke="#94A3B8" stroke-width="0.50"></line></g><g class="entity" data-qualified-name="Frontend. Componentes.ErrorBoundary" id="ent0027" data-source-line="153"><rect x="730.98" y="39" width="108.04" height="46" rx="2.50" ry="2.50" fill="#FFFFFF" stroke="#94A3B8" stroke-width="0.50"></rect><circle cx="744.98" cy="54" r="10" fill="#ADD1B2" stroke="#181818" stroke-width="1"></circle><text x="744.98" y="54" font-family="monospace" font-size="12" fill="#000000" text-anchor="middle" dominant-baseline="central">C</text><text x="757.98" y="57.80" font-size="12" fill="#334155" xml:space="preserve" style="white-space: pre" font-family="sans-serif">ErrorBoundary</text><line x1="731.98" y1="69" x2="838.02" y2="69" stroke="#94A3B8" stroke-width="0.50"></line><line x1="731.98" y1="77" x2="838.02" y2="77" stroke="#94A3B8" stroke-width="0.50"></line></g><g class="entity" data-qualified-name="Frontend. Componentes.LayoutPrincipal" id="ent0028" data-source-line="154"><rect x="868.98" y="39" width="112.05" height="46" rx="2.50" ry="2.50" fill="#FFFFFF" stroke="#94A3B8" stroke-width="0.50"></rect><circle cx="882.98" cy="54" r="10" fill="#ADD1B2" stroke="#181818" stroke-width="1"></circle><text x="882.98" y="54" font-family="monospace" font-size="12" fill="#000000" text-anchor="middle" dominant-baseline="central">C</text><text x="895.98" y="57.80" font-size="12" fill="#334155" xml:space="preserve" style="white-space: pre" font-family="sans-serif">LayoutPrincipal</text><line x1="869.98" y1="69" x2="980.03" y2="69" stroke="#94A3B8" stroke-width="0.50"></line><line x1="869.98" y1="77" x2="980.03" y2="77" stroke="#94A3B8" stroke-width="0.50"></line></g><g class="entity" data-qualified-name="Frontend. Componentes.BuscarLibro" id="ent0029" data-source-line="155"><rect x="1134.98" y="39" width="94.03" height="46" rx="2.50" ry="2.50" fill="#FFFFFF" stroke="#94A3B8" stroke-width="0.50"></rect><circle cx="1148.98" cy="54" r="10" fill="#ADD1B2" stroke="#181818" stroke-width="1"></circle><text x="1148.98" y="54" font-family="monospace" font-size="12" fill="#000000" text-anchor="middle" dominant-baseline="central">C</text><text x="1161.98" y="57.80" font-size="12" fill="#334155" xml:space="preserve" style="white-space: pre" font-family="sans-serif">BuscarLibro</text><line x1="1135.98" y1="69" x2="1228.01" y2="69" stroke="#94A3B8" stroke-width="0.50"></line><line x1="1135.98" y1="77" x2="1228.01" y2="77" stroke="#94A3B8" stroke-width="0.50"></line></g><g class="entity" data-qualified-name="Frontend. Componentes.Detalle" id="ent0030" data-source-line="156"><rect x="1259.32" y="39" width="67.35" height="46" rx="2.50" ry="2.50" fill="#FFFFFF" stroke="#94A3B8" stroke-width="0.50"></rect><circle cx="1273.32" cy="54" r="10" fill="#ADD1B2" stroke="#181818" stroke-width="1"></circle><text x="1273.32" y="54" font-family="monospace" font-size="12" fill="#000000" text-anchor="middle" dominant-baseline="central">C</text><text x="1286.32" y="57.80" font-size="12" fill="#334155" xml:space="preserve" style="white-space: pre" font-family="sans-serif">Detalle</text><line x1="1260.32" y1="69" x2="1325.67" y2="69" stroke="#94A3B8" stroke-width="0.50"></line><line x1="1260.32" y1="77" x2="1325.67" y2="77" stroke="#94A3B8" stroke-width="0.50"></line></g><g class="entity" data-qualified-name="Frontend. Componentes.FormularioOpinion" id="ent0031" data-source-line="157"><rect x="1356.65" y="39" width="128.71" height="46" rx="2.50" ry="2.50" fill="#FFFFFF" stroke="#94A3B8" stroke-width="0.50"></rect><circle cx="1370.65" cy="54" r="10" fill="#ADD1B2" stroke="#181818" stroke-width="1"></circle><text x="1370.65" y="54" font-family="monospace" font-size="12" fill="#000000" text-anchor="middle" dominant-baseline="central">C</text><text x="1383.65" y="57.80" font-size="12" fill="#334155" xml:space="preserve" style="white-space: pre" font-family="sans-serif">FormularioOpinion</text><line x1="1357.65" y1="69" x2="1484.36" y2="69" stroke="#94A3B8" stroke-width="0.50"></line><line x1="1357.65" y1="77" x2="1484.36" y2="77" stroke="#94A3B8" stroke-width="0.50"></line></g><g class="entity" data-qualified-name="Frontend. Componentes.Perfil" id="ent0032" data-source-line="158"><rect x="1515.33" y="39" width="57.34" height="46" rx="2.50" ry="2.50" fill="#FFFFFF" stroke="#94A3B8" stroke-width="0.50"></rect><circle cx="1529.33" cy="54" r="10" fill="#ADD1B2" stroke="#181818" stroke-width="1"></circle><text x="1529.33" y="54" font-family="monospace" font-size="12" fill="#000000" text-anchor="middle" dominant-baseline="central">C</text><text x="1542.33" y="57.80" font-size="12" fill="#334155" xml:space="preserve" style="white-space: pre" font-family="sans-serif">Perfil</text><line x1="1516.33" y1="69" x2="1571.67" y2="69" stroke="#94A3B8" stroke-width="0.50"></line><line x1="1516.33" y1="77" x2="1571.67" y2="77" stroke="#94A3B8" stroke-width="0.50"></line></g><g class="entity" data-qualified-name="Frontend. Componentes.UpdateUser" id="ent0033" data-source-line="159"><rect x="1010.98" y="39" width="94.03" height="46" rx="2.50" ry="2.50" fill="#FFFFFF" stroke="#94A3B8" stroke-width="0.50"></rect><circle cx="1024.98" cy="54" r="10" fill="#ADD1B2" stroke="#181818" stroke-width="1"></circle><text x="1024.98" y="54" font-family="monospace" font-size="12" fill="#000000" text-anchor="middle" dominant-baseline="central">C</text><text x="1037.98" y="57.80" font-size="12" fill="#334155" xml:space="preserve" style="white-space: pre" font-family="sans-serif">UpdateUser</text><line x1="1011.98" y1="69" x2="1104.01" y2="69" stroke="#94A3B8" stroke-width="0.50"></line><line x1="1011.98" y1="77" x2="1104.01" y2="77" stroke="#94A3B8" stroke-width="0.50"></line></g><g class="link" data-entity-1="ent0002" data-entity-2="ent0003" id="lnk9" data-source-line="77" data-link-type="dependency"><path d="M699.74,489.44 C684.2,504.27 671.2673,516.6181 655.7373,531.4381" fill="none" stroke="#64748B" stroke-width="1"></path><polygon points="652.12,534.89 661.39,531.57 655.74,531.44 655.87,525.78 652.12,534.89" fill="#64748B" stroke="#64748B" stroke-width="1"></polygon><text x="686.20" y="507.81" font-size="12" fill="#000000" xml:space="preserve" style="white-space: pre" font-family="sans-serif">1</text><text x="640.72" y="524.36" font-size="12" fill="#000000" xml:space="preserve" style="white-space: pre" font-family="sans-serif">0..*</text></g><g class="link" data-entity-1="ent0002" data-entity-2="ent0004" id="lnk10" data-source-line="78" data-link-type="dependency"><path d="M768.2,489.2 C768.72,504.04 769.095,514.8731 769.615,529.7231" fill="none" stroke="#64748B" stroke-width="1"></path><polygon points="769.79,534.72 773.47,525.59 769.62,529.72 765.48,525.87 769.79,534.72" fill="#64748B" stroke="#64748B" stroke-width="1"></polygon><text x="762.15" y="507.54" font-size="12" fill="#000000" xml:space="preserve" style="white-space: pre" font-family="sans-serif">1</text><text x="750.49" y="524.17" font-size="12" fill="#000000" xml:space="preserve" style="white-space: pre" font-family="sans-serif">0..*</text></g><g class="link" data-entity-1="ent0006" data-entity-2="ent0005" id="lnk11" data-source-line="79" data-link-type="dependency"><path d="M530.53,462.28 C513.75,476.25 494.16,492.22 476,506.2 C444.14,530.72 410.7712,554.4899 384.6312,572.7199" fill="none" stroke="#64748B" stroke-width="1"></path><polygon points="380.53,575.58 390.20,573.71 384.63,572.72 385.62,567.15 380.53,575.58" fill="#64748B" stroke="#64748B" stroke-width="1"></polygon></g><g class="link" data-entity-1="ent0007" data-entity-2="ent0005" id="lnk12" data-source-line="80" data-link-type="dependency"><path d="M188.25,482.59 C198.87,490.56 209.69,498.62 220,506.2 C252.6,530.19 286.2136,554.2247 312.2036,572.6847" fill="none" stroke="#64748B" stroke-width="1"></path><polygon points="316.28,575.58 311.26,567.11 312.20,572.68 306.63,573.63 316.28,575.58" fill="#64748B" stroke="#64748B" stroke-width="1"></polygon></g><g class="link" data-entity-1="ent0008" data-entity-2="ent0005" id="lnk13" data-source-line="81" data-link-type="dependency"><path d="M348,475.89 C348,508.79 348,545.37 348,570.53" fill="none" stroke="#64748B" stroke-width="1"></path><polygon points="348,575.53 352,566.53 348,570.53 344,566.53 348,575.53" fill="#64748B" stroke="#64748B" stroke-width="1"></polygon></g><g class="link" data-entity-1="ent0021" data-entity-2="ent0015" id="lnk34" data-source-line="163" data-link-type="dependency"><path d="M1004.13,260.09 C998,293.49 990.3836,334.9623 983.9636,369.9023" fill="none" stroke="#64748B" stroke-width="1" stroke-dasharray="7,7"></path><polygon points="983.06,374.82 988.62,366.69 983.96,369.90 980.75,365.25 983.06,374.82" fill="#64748B" stroke="#64748B" stroke-width="1"></polygon></g><g class="link" data-entity-1="ent0023" data-entity-2="ent0019" id="lnk35" data-source-line="164" data-link-type="dependency"><path d="M1426.27,266.78 C1429.5,297.16 1433.1108,331.1681 1436.4708,362.7381" fill="none" stroke="#64748B" stroke-width="1" stroke-dasharray="7,7"></path><polygon points="1437,367.71 1440.03,358.34 1436.47,362.74 1432.07,359.18 1437,367.71" fill="#64748B" stroke="#64748B" stroke-width="1"></polygon></g><g class="link" data-entity-1="ent0024" data-entity-2="ent0018" id="lnk36" data-source-line="165" data-link-type="dependency"><path d="M1616.38,266.78 C1610.3,301.71 1603.1058,343.0738 1597.3158,376.4038" fill="none" stroke="#64748B" stroke-width="1" stroke-dasharray="7,7"></path><polygon points="1596.46,381.33 1601.94,373.15 1597.32,376.40 1594.06,371.78 1596.46,381.33" fill="#64748B" stroke="#64748B" stroke-width="1"></polygon></g><g class="link" data-entity-1="ent0022" data-entity-2="ent0016" id="lnk37" data-source-line="166" data-link-type="dependency"><path d="M1202.41,253.26 C1189.76,286.85 1172.5329,332.5511 1158.4529,369.9211" fill="none" stroke="#64748B" stroke-width="1" stroke-dasharray="7,7"></path><polygon points="1156.69,374.60 1163.61,367.59 1158.45,369.92 1156.12,364.77 1156.69,374.60" fill="#64748B" stroke="#64748B" stroke-width="1"></polygon></g><g class="link" data-entity-1="ent0022" data-entity-2="ent0017" id="lnk38" data-source-line="167" data-link-type="dependency"><path d="M1229.06,253.26 C1241.23,286.85 1257.7867,332.5291 1271.3267,369.8991" fill="none" stroke="#64748B" stroke-width="1" stroke-dasharray="7,7"></path><polygon points="1273.03,374.60 1273.72,364.78 1271.33,369.90 1266.20,367.50 1273.03,374.60" fill="#64748B" stroke="#64748B" stroke-width="1"></polygon></g><g class="link" data-entity-1="ent0026" data-entity-2="ent0021" id="lnk39" data-source-line="169" data-link-type="dependency"><path d="M677.47,85.3 C689.08,93.44 702.78,102.29 716,109 C783.67,143.34 860.3454,170.2158 920.6654,188.9658" fill="none" stroke="#64748B" stroke-width="1" stroke-dasharray="7,7"></path><polygon points="925.44,190.45 918.03,183.96 920.67,188.97 915.66,191.60 925.44,190.45" fill="#64748B" stroke="#64748B" stroke-width="1"></polygon></g><g class="link" data-entity-1="ent0029" data-entity-2="ent0022" id="lnk40" data-source-line="170" data-link-type="dependency"><path d="M1187.02,85.46 C1192.54,110.18 1200.4109,145.4001 1206.9009,174.4801" fill="none" stroke="#64748B" stroke-width="1" stroke-dasharray="7,7"></path><polygon points="1207.99,179.36 1209.93,169.70 1206.90,174.48 1202.13,171.45 1207.99,179.36" fill="#64748B" stroke="#64748B" stroke-width="1"></polygon></g><g class="link" data-entity-1="ent0030" data-entity-2="ent0022" id="lnk41" data-source-line="171" data-link-type="dependency"><path d="M1281.64,85.46 C1269.13,110.18 1251.1081,145.819 1236.3881,174.899" fill="none" stroke="#64748B" stroke-width="1" stroke-dasharray="7,7"></path><polygon points="1234.13,179.36 1241.76,173.14 1236.39,174.90 1234.63,169.52 1234.13,179.36" fill="#64748B" stroke="#64748B" stroke-width="1"></polygon></g><g class="link" data-entity-1="ent0030" data-entity-2="ent0023" id="lnk42" data-source-line="172" data-link-type="dependency"><path d="M1311.89,85.46 C1329.55,106.46 1353.3214,134.7337 1376.0414,161.7437" fill="none" stroke="#64748B" stroke-width="1" stroke-dasharray="7,7"></path><polygon points="1379.26,165.57 1376.53,156.11 1376.04,161.74 1370.41,161.26 1379.26,165.57" fill="#64748B" stroke="#64748B" stroke-width="1"></polygon></g><g class="link" data-entity-1="ent0031" data-entity-2="ent0023" id="lnk43" data-source-line="173" data-link-type="dependency"><path d="M1421,85.46 C1421,106.46 1421,133.56 1421,160.57" fill="none" stroke="#64748B" stroke-width="1" stroke-dasharray="7,7"></path><polygon points="1421,165.57 1425,156.57 1421,160.57 1417,156.57 1421,165.57" fill="#64748B" stroke="#64748B" stroke-width="1"></polygon></g><g class="link" data-entity-1="ent0032" data-entity-2="ent0021" id="lnk44" data-source-line="174" data-link-type="dependency"><path d="M1528.6,85.44 C1521.1,94.44 1511.27,103.89 1500,109 C1421.6,144.55 1192.82,93.78 1113,126 C1088.27,135.98 1069.0595,151.2085 1051.4495,168.9785" fill="none" stroke="#64748B" stroke-width="1" stroke-dasharray="7,7"></path><polygon points="1047.93,172.53 1057.11,168.95 1051.45,168.98 1051.42,163.32 1047.93,172.53" fill="#64748B" stroke="#64748B" stroke-width="1"></polygon></g><g class="link" data-entity-1="ent0032" data-entity-2="ent0024" id="lnk45" data-source-line="175" data-link-type="dependency"><path d="M1555.95,85.46 C1567.13,106.46 1581.8603,134.1465 1596.2403,161.1565" fill="none" stroke="#64748B" stroke-width="1" stroke-dasharray="7,7"></path><polygon points="1598.59,165.57 1597.89,155.75 1596.24,161.16 1590.83,159.51 1598.59,165.57" fill="#64748B" stroke="#64748B" stroke-width="1"></polygon></g><g class="link" data-entity-1="ent0032" data-entity-2="ent0023" id="lnk46" data-source-line="176" data-link-type="dependency"><path d="M1525.85,85.46 C1508.88,106.46 1486.0829,134.6713 1464.2529,161.6813" fill="none" stroke="#64748B" stroke-width="1" stroke-dasharray="7,7"></path><polygon points="1461.11,165.57 1469.88,161.08 1464.25,161.68 1463.66,156.06 1461.11,165.57" fill="#64748B" stroke="#64748B" stroke-width="1"></polygon></g><g class="link" data-entity-1="ent0033" data-entity-2="ent0021" id="lnk47" data-source-line="177" data-link-type="dependency"><path d="M1051.21,85.46 C1044.31,108.28 1034.9064,139.4138 1026.3664,167.6738" fill="none" stroke="#64748B" stroke-width="1" stroke-dasharray="7,7"></path><polygon points="1024.92,172.46 1031.35,165.00 1026.37,167.67 1023.69,162.69 1024.92,172.46" fill="#64748B" stroke="#64748B" stroke-width="1"></polygon></g><g class="link" data-entity-1="ent0021" data-entity-2="ent0002" id="lnk48" data-source-line="180" data-link-type="dependency"><path d="M961.01,260.02 C938.61,278.84 911.99,301.21 888,321.4 C872.74,334.24 860.2444,344.7691 844.6544,357.8991" fill="none" stroke="#64748B" stroke-width="1" stroke-dasharray="7,7"></path><polygon points="840.83,361.12 850.29,358.38 844.65,357.90 845.14,352.26 840.83,361.12" fill="#64748B" stroke="#64748B" stroke-width="1"></polygon><text x="916.16" y="310.00" font-size="12" fill="#000000" xml:space="preserve" style="white-space: pre" font-family="sans-serif">HTTP</text></g><g class="link" data-entity-1="ent0024" data-entity-2="ent0004" id="lnk49" data-source-line="181" data-link-type="dependency"><path d="M1697.34,266.65 C1714.15,282.05 1729.81,300.54 1739,321.4 C1772.13,396.56 1794.01,445.21 1739,506.2 C1679.6,572.06 1069.7887,591.5573 852.5387,596.4573" fill="none" stroke="#64748B" stroke-width="1" stroke-dasharray="7,7"></path><polygon points="847.54,596.57 856.63,600.37 852.54,596.46 856.45,592.37 847.54,596.57" fill="#64748B" stroke="#64748B" stroke-width="1"></polygon><text x="1773.54" y="429.30" font-size="12" fill="#000000" xml:space="preserve" style="white-space: pre" font-family="sans-serif">HTTP</text></g><g class="link" data-entity-1="ent0023" data-entity-2="ent0003" id="lnk50" data-source-line="182" data-link-type="dependency"><path d="M1481.99,266.84 C1494.97,275.68 1508.99,284.08 1523,290.4 C1579.11,315.73 1619.65,273.24 1658,321.4 C1709.17,385.65 1715.21,447.27 1658,506.2 C1620.22,545.12 733.75,518.94 682,535.2 C677.06,536.75 676.7095,536.6329 671.8495,538.7629" fill="none" stroke="#64748B" stroke-width="1" stroke-dasharray="7,7"></path><polygon points="667.27,540.77 677.12,540.82 671.85,538.76 673.91,533.49 667.27,540.77" fill="#64748B" stroke="#64748B" stroke-width="1"></polygon><text x="1699.67" y="429.30" font-size="12" fill="#000000" xml:space="preserve" style="white-space: pre" font-family="sans-serif">HTTP</text></g></g></svg>